<?xml version="1.0" encoding="utf-8" standalone="no"?>
<!DOCTYPE svg PUBLIC "-//W3C//DTD SVG 1.1//EN"
  "http://www.w3.org/Graphics/SVG/1.1/DTD/svg11.dtd">
<svg xmlns:xlink="http://www.w3.org/1999/xlink" width="1080pt" height="288pt" viewBox="0 0 1080 288" xmlns="http://www.w3.org/2000/svg" version="1.1">
 <metadata>
  <rdf:RDF xmlns:dc="http://purl.org/dc/elements/1.1/" xmlns:cc="http://creativecommons.org/ns#" xmlns:rdf="http://www.w3.org/1999/02/22-rdf-syntax-ns#">
   <cc:Work>
    <dc:type rdf:resource="http://purl.org/dc/dcmitype/StillImage"/>
    <dc:date>2024-05-18T10:22:13.199859</dc:date>
    <dc:format>image/svg+xml</dc:format>
    <dc:creator>
     <cc:Agent>
      <dc:title>Matplotlib v3.8.4, https://matplotlib.org/</dc:title>
     </cc:Agent>
    </dc:creator>
   </cc:Work>
  </rdf:RDF>
 </metadata>
 <defs>
  <style type="text/css">*{stroke-linejoin: round; stroke-linecap: butt}</style>
 </defs>
 <g id="figure_1">
  <g id="patch_1">
   <path d="M 0 288 
L 1080 288 
L 1080 0 
L 0 0 
z
" style="fill: #ffffff"/>
  </g>
  <g id="axes_1">
   <g id="patch_2">
    <path d="M 34.88 255.46 
L 1067.04 255.46 
L 1067.04 39.6 
L 34.88 39.6 
z
" style="fill: #ffffff"/>
   </g>
   <g id="matplotlib.axis_1">
    <g id="xtick_1">
     <g id="line2d_1">
      <defs>
       <path id="m41218a551b" d="M 0 0 
L 0 6 
" style="stroke: #262626; stroke-width: 1.25"/>
      </defs>
      <g>
       <use xlink:href="#m41218a551b" x="292.92" y="255.46" style="fill: #262626; stroke: #262626; stroke-width: 1.25"/>
      </g>
     </g>
     <g id="text_1">
      <!-- Weight -->
      <g style="fill: #262626" transform="translate(275.899219 272.833594) scale(0.11 -0.11)">
       <defs>
        <path id="ArialMT-57" d="M 1294 0 
L 78 4581 
L 700 4581 
L 1397 1578 
Q 1509 1106 1591 641 
Q 1766 1375 1797 1488 
L 2669 4581 
L 3400 4581 
L 4056 2263 
Q 4303 1400 4413 641 
Q 4500 1075 4641 1638 
L 5359 4581 
L 5969 4581 
L 4713 0 
L 4128 0 
L 3163 3491 
Q 3041 3928 3019 4028 
Q 2947 3713 2884 3491 
L 1913 0 
L 1294 0 
z
" transform="scale(0.015625)"/>
        <path id="ArialMT-65" d="M 2694 1069 
L 3275 997 
Q 3138 488 2766 206 
Q 2394 -75 1816 -75 
Q 1088 -75 661 373 
Q 234 822 234 1631 
Q 234 2469 665 2931 
Q 1097 3394 1784 3394 
Q 2450 3394 2872 2941 
Q 3294 2488 3294 1666 
Q 3294 1616 3291 1516 
L 816 1516 
Q 847 969 1125 678 
Q 1403 388 1819 388 
Q 2128 388 2347 550 
Q 2566 713 2694 1069 
z
M 847 1978 
L 2700 1978 
Q 2663 2397 2488 2606 
Q 2219 2931 1791 2931 
Q 1403 2931 1139 2672 
Q 875 2413 847 1978 
z
" transform="scale(0.015625)"/>
        <path id="ArialMT-69" d="M 425 3934 
L 425 4581 
L 988 4581 
L 988 3934 
L 425 3934 
z
M 425 0 
L 425 3319 
L 988 3319 
L 988 0 
L 425 0 
z
" transform="scale(0.015625)"/>
        <path id="ArialMT-67" d="M 319 -275 
L 866 -356 
Q 900 -609 1056 -725 
Q 1266 -881 1628 -881 
Q 2019 -881 2231 -725 
Q 2444 -569 2519 -288 
Q 2563 -116 2559 434 
Q 2191 0 1641 0 
Q 956 0 581 494 
Q 206 988 206 1678 
Q 206 2153 378 2554 
Q 550 2956 876 3175 
Q 1203 3394 1644 3394 
Q 2231 3394 2613 2919 
L 2613 3319 
L 3131 3319 
L 3131 450 
Q 3131 -325 2973 -648 
Q 2816 -972 2473 -1159 
Q 2131 -1347 1631 -1347 
Q 1038 -1347 672 -1080 
Q 306 -813 319 -275 
z
M 784 1719 
Q 784 1066 1043 766 
Q 1303 466 1694 466 
Q 2081 466 2343 764 
Q 2606 1063 2606 1700 
Q 2606 2309 2336 2618 
Q 2066 2928 1684 2928 
Q 1309 2928 1046 2623 
Q 784 2319 784 1719 
z
" transform="scale(0.015625)"/>
        <path id="ArialMT-68" d="M 422 0 
L 422 4581 
L 984 4581 
L 984 2938 
Q 1378 3394 1978 3394 
Q 2347 3394 2619 3248 
Q 2891 3103 3008 2847 
Q 3125 2591 3125 2103 
L 3125 0 
L 2563 0 
L 2563 2103 
Q 2563 2525 2380 2717 
Q 2197 2909 1863 2909 
Q 1613 2909 1392 2779 
Q 1172 2650 1078 2428 
Q 984 2206 984 1816 
L 984 0 
L 422 0 
z
" transform="scale(0.015625)"/>
        <path id="ArialMT-74" d="M 1650 503 
L 1731 6 
Q 1494 -44 1306 -44 
Q 1000 -44 831 53 
Q 663 150 594 308 
Q 525 466 525 972 
L 525 2881 
L 113 2881 
L 113 3319 
L 525 3319 
L 525 4141 
L 1084 4478 
L 1084 3319 
L 1650 3319 
L 1650 2881 
L 1084 2881 
L 1084 941 
Q 1084 700 1114 631 
Q 1144 563 1211 522 
Q 1278 481 1403 481 
Q 1497 481 1650 503 
z
" transform="scale(0.015625)"/>
       </defs>
       <use xlink:href="#ArialMT-57"/>
       <use xlink:href="#ArialMT-65" x="92.634766"/>
       <use xlink:href="#ArialMT-69" x="148.25"/>
       <use xlink:href="#ArialMT-67" x="170.466797"/>
       <use xlink:href="#ArialMT-68" x="226.082031"/>
       <use xlink:href="#ArialMT-74" x="281.697266"/>
      </g>
     </g>
    </g>
    <g id="xtick_2">
     <g id="line2d_2">
      <g>
       <use xlink:href="#m41218a551b" x="809" y="255.46" style="fill: #262626; stroke: #262626; stroke-width: 1.25"/>
      </g>
     </g>
     <g id="text_2">
      <!-- 20 -->
      <g style="fill: #262626" transform="translate(802.882969 272.833594) scale(0.11 -0.11)">
       <defs>
        <path id="ArialMT-32" d="M 3222 541 
L 3222 0 
L 194 0 
Q 188 203 259 391 
Q 375 700 629 1000 
Q 884 1300 1366 1694 
Q 2113 2306 2375 2664 
Q 2638 3022 2638 3341 
Q 2638 3675 2398 3904 
Q 2159 4134 1775 4134 
Q 1369 4134 1125 3890 
Q 881 3647 878 3216 
L 300 3275 
Q 359 3922 746 4261 
Q 1134 4600 1788 4600 
Q 2447 4600 2831 4234 
Q 3216 3869 3216 3328 
Q 3216 3053 3103 2787 
Q 2991 2522 2730 2228 
Q 2469 1934 1863 1422 
Q 1356 997 1212 845 
Q 1069 694 975 541 
L 3222 541 
z
" transform="scale(0.015625)"/>
        <path id="ArialMT-30" d="M 266 2259 
Q 266 3072 433 3567 
Q 600 4063 929 4331 
Q 1259 4600 1759 4600 
Q 2128 4600 2406 4451 
Q 2684 4303 2865 4023 
Q 3047 3744 3150 3342 
Q 3253 2941 3253 2259 
Q 3253 1453 3087 958 
Q 2922 463 2592 192 
Q 2263 -78 1759 -78 
Q 1097 -78 719 397 
Q 266 969 266 2259 
z
M 844 2259 
Q 844 1131 1108 757 
Q 1372 384 1759 384 
Q 2147 384 2411 759 
Q 2675 1134 2675 2259 
Q 2675 3391 2411 3762 
Q 2147 4134 1753 4134 
Q 1366 4134 1134 3806 
Q 844 3388 844 2259 
z
" transform="scale(0.015625)"/>
       </defs>
       <use xlink:href="#ArialMT-32"/>
       <use xlink:href="#ArialMT-30" x="55.615234"/>
      </g>
     </g>
    </g>
   </g>
   <g id="matplotlib.axis_2">
    <g id="ytick_1">
     <g id="line2d_3">
      <defs>
       <path id="m9283d9b76b" d="M 0 0 
L -6 0 
" style="stroke: #262626; stroke-width: 1.25"/>
      </defs>
      <g>
       <use xlink:href="#m9283d9b76b" x="34.88" y="244.929176" style="fill: #262626; stroke: #262626; stroke-width: 1.25"/>
      </g>
     </g>
     <g id="text_3">
      <!-- −2 -->
      <g style="fill: #262626" transform="translate(12.838281 248.865972) scale(0.11 -0.11)">
       <defs>
        <path id="ArialMT-2212" d="M 3381 1997 
L 356 1997 
L 356 2522 
L 3381 2522 
L 3381 1997 
z
" transform="scale(0.015625)"/>
       </defs>
       <use xlink:href="#ArialMT-2212"/>
       <use xlink:href="#ArialMT-32" x="58.398438"/>
      </g>
     </g>
    </g>
    <g id="ytick_2">
     <g id="line2d_4">
      <g>
       <use xlink:href="#m9283d9b76b" x="34.88" y="197.858247" style="fill: #262626; stroke: #262626; stroke-width: 1.25"/>
      </g>
     </g>
     <g id="text_4">
      <!-- 0 -->
      <g style="fill: #262626" transform="translate(19.262969 201.795044) scale(0.11 -0.11)">
       <use xlink:href="#ArialMT-30"/>
      </g>
     </g>
    </g>
    <g id="ytick_3">
     <g id="line2d_5">
      <g>
       <use xlink:href="#m9283d9b76b" x="34.88" y="150.787319" style="fill: #262626; stroke: #262626; stroke-width: 1.25"/>
      </g>
     </g>
     <g id="text_5">
      <!-- 2 -->
      <g style="fill: #262626" transform="translate(19.262969 154.724116) scale(0.11 -0.11)">
       <use xlink:href="#ArialMT-32"/>
      </g>
     </g>
    </g>
    <g id="ytick_4">
     <g id="line2d_6">
      <g>
       <use xlink:href="#m9283d9b76b" x="34.88" y="103.716391" style="fill: #262626; stroke: #262626; stroke-width: 1.25"/>
      </g>
     </g>
     <g id="text_6">
      <!-- 4 -->
      <g style="fill: #262626" transform="translate(19.262969 107.653188) scale(0.11 -0.11)">
       <defs>
        <path id="ArialMT-34" d="M 2069 0 
L 2069 1097 
L 81 1097 
L 81 1613 
L 2172 4581 
L 2631 4581 
L 2631 1613 
L 3250 1613 
L 3250 1097 
L 2631 1097 
L 2631 0 
L 2069 0 
z
M 2069 1613 
L 2069 3678 
L 634 1613 
L 2069 1613 
z
" transform="scale(0.015625)"/>
       </defs>
       <use xlink:href="#ArialMT-34"/>
      </g>
     </g>
    </g>
    <g id="ytick_5">
     <g id="line2d_7">
      <g>
       <use xlink:href="#m9283d9b76b" x="34.88" y="56.645463" style="fill: #262626; stroke: #262626; stroke-width: 1.25"/>
      </g>
     </g>
     <g id="text_7">
      <!-- 6 -->
      <g style="fill: #262626" transform="translate(19.262969 60.582259) scale(0.11 -0.11)">
       <defs>
        <path id="ArialMT-36" d="M 3184 3459 
L 2625 3416 
Q 2550 3747 2413 3897 
Q 2184 4138 1850 4138 
Q 1581 4138 1378 3988 
Q 1113 3794 959 3422 
Q 806 3050 800 2363 
Q 1003 2672 1297 2822 
Q 1591 2972 1913 2972 
Q 2475 2972 2870 2558 
Q 3266 2144 3266 1488 
Q 3266 1056 3080 686 
Q 2894 316 2569 119 
Q 2244 -78 1831 -78 
Q 1128 -78 684 439 
Q 241 956 241 2144 
Q 241 3472 731 4075 
Q 1159 4600 1884 4600 
Q 2425 4600 2770 4297 
Q 3116 3994 3184 3459 
z
M 888 1484 
Q 888 1194 1011 928 
Q 1134 663 1356 523 
Q 1578 384 1822 384 
Q 2178 384 2434 671 
Q 2691 959 2691 1453 
Q 2691 1928 2437 2201 
Q 2184 2475 1800 2475 
Q 1419 2475 1153 2201 
Q 888 1928 888 1484 
z
" transform="scale(0.015625)"/>
       </defs>
       <use xlink:href="#ArialMT-36"/>
      </g>
     </g>
    </g>
   </g>
   <g id="PolyCollection_1">
    <defs>
     <path id="mef07d15027" d="M 317.967241 -61.349666 
L 267.872759 -61.349666 
L 259.204189 -63.139954 
L 248.547287 -64.930242 
L 235.823827 -66.72053 
L 221.089868 -68.510818 
L 204.568289 -70.301106 
L 186.669278 -72.091394 
L 167.992675 -73.881682 
L 149.307712 -75.67197 
L 131.508539 -77.462258 
L 115.547726 -79.252546 
L 102.353882 -81.042834 
L 92.742977 -82.833122 
L 87.33504 -84.62341 
L 86.488 -86.413698 
L 90.258496 -88.203986 
L 98.395613 -89.994274 
L 110.368506 -91.784562 
L 125.423681 -93.574851 
L 142.66336 -95.365139 
L 161.133599 -97.155427 
L 179.910217 -98.945715 
L 198.172014 -100.736003 
L 215.253732 -102.526291 
L 230.675157 -104.316579 
L 244.146626 -106.106867 
L 255.554509 -107.897155 
L 264.93231 -109.687443 
L 272.423869 -111.477731 
L 278.244761 -113.268019 
L 282.646773 -115.058307 
L 285.888677 -116.848595 
L 288.214826 -118.638883 
L 289.841617 -120.429171 
L 290.950853 -122.219459 
L 291.688479 -124.009747 
L 292.166967 -125.800035 
L 292.469811 -127.590323 
L 292.656862 -129.380611 
L 292.769623 -131.170899 
L 292.835979 -132.961187 
L 292.874101 -134.751475 
L 292.895485 -136.541763 
L 292.907199 -138.332052 
L 292.913464 -140.12234 
L 292.916738 -141.912628 
L 292.918408 -143.702916 
L 292.91924 -145.493204 
L 292.919645 -147.283492 
L 292.919837 -149.07378 
L 292.919924 -150.864068 
L 292.919959 -152.654356 
L 292.919967 -154.444644 
L 292.919953 -156.234932 
L 292.919911 -158.02522 
L 292.919825 -159.815508 
L 292.919655 -161.605796 
L 292.919334 -163.396084 
L 292.918742 -165.186372 
L 292.917678 -166.97666 
L 292.915809 -168.766948 
L 292.912605 -170.557236 
L 292.90724 -172.347524 
L 292.898475 -174.137812 
L 292.884499 -175.9281 
L 292.862755 -177.718388 
L 292.829751 -179.508676 
L 292.780891 -181.298965 
L 292.710362 -183.089253 
L 292.611121 -184.879541 
L 292.47505 -186.669829 
L 292.29333 -188.460117 
L 292.05708 -190.250405 
L 291.758266 -192.040693 
L 291.39086 -193.830981 
L 290.952148 -195.621269 
L 290.444051 -197.411557 
L 289.874243 -199.201845 
L 289.256862 -200.992133 
L 288.612595 -202.782421 
L 287.96798 -204.572709 
L 287.353868 -206.362997 
L 286.803135 -208.153285 
L 286.347831 -209.943573 
L 286.016126 -211.733861 
L 285.829427 -213.524149 
L 285.800096 -215.314437 
L 285.930094 -217.104725 
L 286.210767 -218.895013 
L 286.623796 -220.685301 
L 287.143177 -222.475589 
L 287.737925 -224.265877 
L 288.375118 -226.056166 
L 289.02286 -227.846454 
L 289.652816 -229.636742 
L 290.24203 -231.42703 
L 290.773939 -233.217318 
L 291.238555 -235.007606 
L 291.631964 -236.797894 
L 291.955333 -238.588182 
L 293.884667 -238.588182 
L 293.884667 -238.588182 
L 294.208036 -236.797894 
L 294.601445 -235.007606 
L 295.066061 -233.217318 
L 295.59797 -231.42703 
L 296.187184 -229.636742 
L 296.81714 -227.846454 
L 297.464882 -226.056166 
L 298.102075 -224.265877 
L 298.696823 -222.475589 
L 299.216204 -220.685301 
L 299.629233 -218.895013 
L 299.909906 -217.104725 
L 300.039904 -215.314437 
L 300.010573 -213.524149 
L 299.823874 -211.733861 
L 299.492169 -209.943573 
L 299.036865 -208.153285 
L 298.486132 -206.362997 
L 297.87202 -204.572709 
L 297.227405 -202.782421 
L 296.583138 -200.992133 
L 295.965757 -199.201845 
L 295.395949 -197.411557 
L 294.887852 -195.621269 
L 294.44914 -193.830981 
L 294.081734 -192.040693 
L 293.78292 -190.250405 
L 293.54667 -188.460117 
L 293.36495 -186.669829 
L 293.228879 -184.879541 
L 293.129638 -183.089253 
L 293.059109 -181.298965 
L 293.010249 -179.508676 
L 292.977245 -177.718388 
L 292.955501 -175.9281 
L 292.941525 -174.137812 
L 292.93276 -172.347524 
L 292.927395 -170.557236 
L 292.924191 -168.766948 
L 292.922322 -166.97666 
L 292.921258 -165.186372 
L 292.920666 -163.396084 
L 292.920345 -161.605796 
L 292.920175 -159.815508 
L 292.920089 -158.02522 
L 292.920047 -156.234932 
L 292.920033 -154.444644 
L 292.920041 -152.654356 
L 292.920076 -150.864068 
L 292.920163 -149.07378 
L 292.920355 -147.283492 
L 292.92076 -145.493204 
L 292.921592 -143.702916 
L 292.923262 -141.912628 
L 292.926536 -140.12234 
L 292.932801 -138.332052 
L 292.944515 -136.541763 
L 292.965899 -134.751475 
L 293.004021 -132.961187 
L 293.070377 -131.170899 
L 293.183138 -129.380611 
L 293.370189 -127.590323 
L 293.673033 -125.800035 
L 294.151521 -124.009747 
L 294.889147 -122.219459 
L 295.998383 -120.429171 
L 297.625174 -118.638883 
L 299.951323 -116.848595 
L 303.193227 -115.058307 
L 307.595239 -113.268019 
L 313.416131 -111.477731 
L 320.90769 -109.687443 
L 330.285491 -107.897155 
L 341.693374 -106.106867 
L 355.164843 -104.316579 
L 370.586268 -102.526291 
L 387.667986 -100.736003 
L 405.929783 -98.945715 
L 424.706401 -97.155427 
L 443.17664 -95.365139 
L 460.416319 -93.574851 
L 475.471494 -91.784562 
L 487.444387 -89.994274 
L 495.581504 -88.203986 
L 499.352 -86.413698 
L 498.50496 -84.62341 
L 493.097023 -82.833122 
L 483.486118 -81.042834 
L 470.292274 -79.252546 
L 454.331461 -77.462258 
L 436.532288 -75.67197 
L 417.847325 -73.881682 
L 399.170722 -72.091394 
L 381.271711 -70.301106 
L 364.750132 -68.510818 
L 350.016173 -66.72053 
L 337.292713 -64.930242 
L 326.635811 -63.139954 
L 317.967241 -61.349666 
z
" style="stroke: #484848; stroke-width: 3"/>
    </defs>
    <g clip-path="url(#p3fa1c338fc)">
     <use xlink:href="#mef07d15027" x="0" y="288" style="fill: #cb3335; stroke: #484848; stroke-width: 3"/>
    </g>
   </g>
   <g id="PolyCollection_2">
    <defs>
     <path id="mf760191ca3" d="M 820.251263 -42.351818 
L 797.748737 -42.351818 
L 795.422189 -43.400427 
L 792.723107 -44.449035 
L 789.615693 -45.497644 
L 786.065473 -46.546252 
L 782.040392 -47.594861 
L 777.512022 -48.643469 
L 772.456847 -49.692078 
L 766.857613 -50.740686 
L 760.704687 -51.789294 
L 753.997397 -52.837903 
L 746.745299 -53.886511 
L 738.969319 -54.93512 
L 730.702723 -55.983728 
L 721.991856 -57.032337 
L 712.8966 -58.080945 
L 703.490498 -59.129554 
L 693.8605 -60.178162 
L 684.106303 -61.226771 
L 674.339235 -62.275379 
L 664.680697 -63.323988 
L 655.260145 -64.372596 
L 646.212641 -65.421205 
L 637.676012 -66.469813 
L 629.787673 -67.518422 
L 622.681203 -68.56703 
L 616.482773 -69.615639 
L 611.30754 -70.664247 
L 607.256146 -71.712855 
L 604.411457 -72.761464 
L 602.835682 -73.810072 
L 602.568 -74.858681 
L 603.622821 -75.907289 
L 605.988763 -76.955898 
L 609.628425 -78.004506 
L 614.478962 -79.053115 
L 620.453481 -80.101723 
L 627.443186 -81.150332 
L 635.320202 -82.19894 
L 643.940946 -83.247549 
L 653.149919 -84.296157 
L 662.783735 -85.344766 
L 672.67524 -86.393374 
L 682.657534 -87.441983 
L 692.567761 -88.490591 
L 702.250525 -89.5392 
L 711.560842 -90.587808 
L 720.366545 -91.636416 
L 728.550135 -92.685025 
L 736.010067 -93.733633 
L 742.661516 -94.782242 
L 748.436687 -95.83085 
L 753.284751 -96.879459 
L 757.171512 -97.928067 
L 760.078872 -98.976676 
L 762.004216 -100.025284 
L 762.959756 -101.073893 
L 762.9719 -102.122501 
L 762.080663 -103.17111 
L 760.339125 -104.219718 
L 757.812893 -105.268327 
L 754.579536 -106.316935 
L 750.727915 -107.365544 
L 746.357352 -108.414152 
L 741.576552 -109.462761 
L 736.502228 -110.511369 
L 731.257392 -111.559977 
L 725.969271 -112.608586 
L 720.766895 -113.657194 
L 715.778362 -114.705803 
L 711.127882 -115.754411 
L 706.93269 -116.80302 
L 703.29995 -117.851628 
L 700.323799 -118.900237 
L 698.082664 -119.948845 
L 696.637003 -120.997454 
L 696.027581 -122.046062 
L 696.274398 -123.094671 
L 697.376321 -124.143279 
L 699.311459 -125.191888 
L 702.038281 -126.240496 
L 705.497401 -127.289105 
L 709.613984 -128.337713 
L 714.300619 -129.386322 
L 719.460542 -130.43493 
L 724.991054 -131.483539 
L 730.786965 -132.532147 
L 736.74392 -133.580755 
L 742.761471 -134.629364 
L 748.745771 -135.677972 
L 754.611807 -136.726581 
L 760.285108 -137.775189 
L 765.702911 -138.823798 
L 770.814772 -139.872406 
L 775.582673 -140.921015 
L 779.980654 -141.969623 
L 783.994067 -143.018232 
L 787.618508 -144.06684 
L 790.858532 -145.115449 
L 793.726228 -146.164057 
L 824.273772 -146.164057 
L 824.273772 -146.164057 
L 827.141468 -145.115449 
L 830.381492 -144.06684 
L 834.005933 -143.018232 
L 838.019346 -141.969623 
L 842.417327 -140.921015 
L 847.185228 -139.872406 
L 852.297089 -138.823798 
L 857.714892 -137.775189 
L 863.388193 -136.726581 
L 869.254229 -135.677972 
L 875.238529 -134.629364 
L 881.25608 -133.580755 
L 887.213035 -132.532147 
L 893.008946 -131.483539 
L 898.539458 -130.43493 
L 903.699381 -129.386322 
L 908.386016 -128.337713 
L 912.502599 -127.289105 
L 915.961719 -126.240496 
L 918.688541 -125.191888 
L 920.623679 -124.143279 
L 921.725602 -123.094671 
L 921.972419 -122.046062 
L 921.362997 -120.997454 
L 919.917336 -119.948845 
L 917.676201 -118.900237 
L 914.70005 -117.851628 
L 911.06731 -116.80302 
L 906.872118 -115.754411 
L 902.221638 -114.705803 
L 897.233105 -113.657194 
L 892.030729 -112.608586 
L 886.742608 -111.559977 
L 881.497772 -110.511369 
L 876.423448 -109.462761 
L 871.642648 -108.414152 
L 867.272085 -107.365544 
L 863.420464 -106.316935 
L 860.187107 -105.268327 
L 857.660875 -104.219718 
L 855.919337 -103.17111 
L 855.0281 -102.122501 
L 855.040244 -101.073893 
L 855.995784 -100.025284 
L 857.921128 -98.976676 
L 860.828488 -97.928067 
L 864.715249 -96.879459 
L 869.563313 -95.83085 
L 875.338484 -94.782242 
L 881.989933 -93.733633 
L 889.449865 -92.685025 
L 897.633455 -91.636416 
L 906.439158 -90.587808 
L 915.749475 -89.5392 
L 925.432239 -88.490591 
L 935.342466 -87.441983 
L 945.32476 -86.393374 
L 955.216265 -85.344766 
L 964.850081 -84.296157 
L 974.059054 -83.247549 
L 982.679798 -82.19894 
L 990.556814 -81.150332 
L 997.546519 -80.101723 
L 1003.521038 -79.053115 
L 1008.371575 -78.004506 
L 1012.011237 -76.955898 
L 1014.377179 -75.907289 
L 1015.432 -74.858681 
L 1015.164318 -73.810072 
L 1013.588543 -72.761464 
L 1010.743854 -71.712855 
L 1006.69246 -70.664247 
L 1001.517227 -69.615639 
L 995.318797 -68.56703 
L 988.212327 -67.518422 
L 980.323988 -66.469813 
L 971.787359 -65.421205 
L 962.739855 -64.372596 
L 953.319303 -63.323988 
L 943.660765 -62.275379 
L 933.893697 -61.226771 
L 924.1395 -60.178162 
L 914.509502 -59.129554 
L 905.1034 -58.080945 
L 896.008144 -57.032337 
L 887.297277 -55.983728 
L 879.030681 -54.93512 
L 871.254701 -53.886511 
L 864.002603 -52.837903 
L 857.295313 -51.789294 
L 851.142387 -50.740686 
L 845.543153 -49.692078 
L 840.487978 -48.643469 
L 835.959608 -47.594861 
L 831.934527 -46.546252 
L 828.384307 -45.497644 
L 825.276893 -44.449035 
L 822.577811 -43.400427 
L 820.251263 -42.351818 
z
" style="stroke: #484848; stroke-width: 3"/>
    </defs>
    <g clip-path="url(#p3fa1c338fc)">
     <use xlink:href="#mf760191ca3" x="0" y="288" style="fill: #477ca8; stroke: #484848; stroke-width: 3"/>
    </g>
   </g>
   <g id="line2d_8">
    <path d="M 292.92 202.809112 
L 292.92 201.731426 
" clip-path="url(#p3fa1c338fc)" style="fill: none; stroke: #484848; stroke-width: 4.5; stroke-linecap: round"/>
   </g>
   <g id="line2d_9">
    <path d="M 292.92 202.33519 
L 292.92 201.935927 
" clip-path="url(#p3fa1c338fc)" style="fill: none; stroke: #484848; stroke-width: 13.5; stroke-linecap: round"/>
   </g>
   <g id="line2d_10">
    <path d="M 292.92 202.081999 
" clip-path="url(#p3fa1c338fc)" style="fill: none; stroke: #484848; stroke-width: 1.5; stroke-linecap: round"/>
    <defs>
     <path id="m6ebe47752b" d="M 5.625 0 
L -5.625 -0 
" style="stroke: #ffffff; stroke-width: 2.7"/>
    </defs>
    <g clip-path="url(#p3fa1c338fc)">
     <use xlink:href="#m6ebe47752b" x="292.92" y="202.081999" style="fill: #ffffff; stroke: #ffffff; stroke-width: 2.7"/>
    </g>
   </g>
   <g id="line2d_11">
    <path d="M 809 221.80696 
L 809 165.677165 
" clip-path="url(#p3fa1c338fc)" style="fill: none; stroke: #484848; stroke-width: 4.5; stroke-linecap: round"/>
   </g>
   <g id="line2d_12">
    <path d="M 809 210.581001 
L 809 165.677165 
" clip-path="url(#p3fa1c338fc)" style="fill: none; stroke: #484848; stroke-width: 13.5; stroke-linecap: round"/>
   </g>
   <g id="line2d_13">
    <path d="M 809 210.581001 
" clip-path="url(#p3fa1c338fc)" style="fill: none; stroke: #484848; stroke-width: 1.5; stroke-linecap: round"/>
    <g clip-path="url(#p3fa1c338fc)">
     <use xlink:href="#m6ebe47752b" x="809" y="210.581001" style="fill: #ffffff; stroke: #ffffff; stroke-width: 2.7"/>
    </g>
   </g>
   <g id="patch_3">
    <path d="M 34.88 255.46 
L 34.88 39.6 
" style="fill: none; stroke: #262626; stroke-width: 1.25; stroke-linejoin: miter; stroke-linecap: square"/>
   </g>
   <g id="patch_4">
    <path d="M 1067.04 255.46 
L 1067.04 39.6 
" style="fill: none; stroke: #262626; stroke-width: 1.25; stroke-linejoin: miter; stroke-linecap: square"/>
   </g>
   <g id="patch_5">
    <path d="M 34.88 255.46 
L 1067.04 255.46 
" style="fill: none; stroke: #262626; stroke-width: 1.25; stroke-linejoin: miter; stroke-linecap: square"/>
   </g>
   <g id="patch_6">
    <path d="M 34.88 39.6 
L 1067.04 39.6 
" style="fill: none; stroke: #262626; stroke-width: 1.25; stroke-linejoin: miter; stroke-linecap: square"/>
   </g>
  </g>
  <g id="text_8">
   <!-- Violin Plot of all Continuous Variables -->
   <g style="fill: #262626" transform="translate(416.035547 16.496719) scale(0.15 -0.15)">
    <defs>
     <path id="ArialMT-56" d="M 1803 0 
L 28 4581 
L 684 4581 
L 1875 1253 
Q 2019 853 2116 503 
Q 2222 878 2363 1253 
L 3600 4581 
L 4219 4581 
L 2425 0 
L 1803 0 
z
" transform="scale(0.015625)"/>
     <path id="ArialMT-6f" d="M 213 1659 
Q 213 2581 725 3025 
Q 1153 3394 1769 3394 
Q 2453 3394 2887 2945 
Q 3322 2497 3322 1706 
Q 3322 1066 3130 698 
Q 2938 331 2570 128 
Q 2203 -75 1769 -75 
Q 1072 -75 642 372 
Q 213 819 213 1659 
z
M 791 1659 
Q 791 1022 1069 705 
Q 1347 388 1769 388 
Q 2188 388 2466 706 
Q 2744 1025 2744 1678 
Q 2744 2294 2464 2611 
Q 2184 2928 1769 2928 
Q 1347 2928 1069 2612 
Q 791 2297 791 1659 
z
" transform="scale(0.015625)"/>
     <path id="ArialMT-6c" d="M 409 0 
L 409 4581 
L 972 4581 
L 972 0 
L 409 0 
z
" transform="scale(0.015625)"/>
     <path id="ArialMT-6e" d="M 422 0 
L 422 3319 
L 928 3319 
L 928 2847 
Q 1294 3394 1984 3394 
Q 2284 3394 2536 3286 
Q 2788 3178 2913 3003 
Q 3038 2828 3088 2588 
Q 3119 2431 3119 2041 
L 3119 0 
L 2556 0 
L 2556 2019 
Q 2556 2363 2490 2533 
Q 2425 2703 2258 2804 
Q 2091 2906 1866 2906 
Q 1506 2906 1245 2678 
Q 984 2450 984 1813 
L 984 0 
L 422 0 
z
" transform="scale(0.015625)"/>
     <path id="ArialMT-20" transform="scale(0.015625)"/>
     <path id="ArialMT-50" d="M 494 0 
L 494 4581 
L 2222 4581 
Q 2678 4581 2919 4538 
Q 3256 4481 3484 4323 
Q 3713 4166 3852 3881 
Q 3991 3597 3991 3256 
Q 3991 2672 3619 2267 
Q 3247 1863 2275 1863 
L 1100 1863 
L 1100 0 
L 494 0 
z
M 1100 2403 
L 2284 2403 
Q 2872 2403 3119 2622 
Q 3366 2841 3366 3238 
Q 3366 3525 3220 3729 
Q 3075 3934 2838 4000 
Q 2684 4041 2272 4041 
L 1100 4041 
L 1100 2403 
z
" transform="scale(0.015625)"/>
     <path id="ArialMT-66" d="M 556 0 
L 556 2881 
L 59 2881 
L 59 3319 
L 556 3319 
L 556 3672 
Q 556 4006 616 4169 
Q 697 4388 901 4523 
Q 1106 4659 1475 4659 
Q 1713 4659 2000 4603 
L 1916 4113 
Q 1741 4144 1584 4144 
Q 1328 4144 1222 4034 
Q 1116 3925 1116 3625 
L 1116 3319 
L 1763 3319 
L 1763 2881 
L 1116 2881 
L 1116 0 
L 556 0 
z
" transform="scale(0.015625)"/>
     <path id="ArialMT-61" d="M 2588 409 
Q 2275 144 1986 34 
Q 1697 -75 1366 -75 
Q 819 -75 525 192 
Q 231 459 231 875 
Q 231 1119 342 1320 
Q 453 1522 633 1644 
Q 813 1766 1038 1828 
Q 1203 1872 1538 1913 
Q 2219 1994 2541 2106 
Q 2544 2222 2544 2253 
Q 2544 2597 2384 2738 
Q 2169 2928 1744 2928 
Q 1347 2928 1158 2789 
Q 969 2650 878 2297 
L 328 2372 
Q 403 2725 575 2942 
Q 747 3159 1072 3276 
Q 1397 3394 1825 3394 
Q 2250 3394 2515 3294 
Q 2781 3194 2906 3042 
Q 3031 2891 3081 2659 
Q 3109 2516 3109 2141 
L 3109 1391 
Q 3109 606 3145 398 
Q 3181 191 3288 0 
L 2700 0 
Q 2613 175 2588 409 
z
M 2541 1666 
Q 2234 1541 1622 1453 
Q 1275 1403 1131 1340 
Q 988 1278 909 1158 
Q 831 1038 831 891 
Q 831 666 1001 516 
Q 1172 366 1500 366 
Q 1825 366 2078 508 
Q 2331 650 2450 897 
Q 2541 1088 2541 1459 
L 2541 1666 
z
" transform="scale(0.015625)"/>
     <path id="ArialMT-43" d="M 3763 1606 
L 4369 1453 
Q 4178 706 3683 314 
Q 3188 -78 2472 -78 
Q 1731 -78 1267 223 
Q 803 525 561 1097 
Q 319 1669 319 2325 
Q 319 3041 592 3573 
Q 866 4106 1370 4382 
Q 1875 4659 2481 4659 
Q 3169 4659 3637 4309 
Q 4106 3959 4291 3325 
L 3694 3184 
Q 3534 3684 3231 3912 
Q 2928 4141 2469 4141 
Q 1941 4141 1586 3887 
Q 1231 3634 1087 3207 
Q 944 2781 944 2328 
Q 944 1744 1114 1308 
Q 1284 872 1643 656 
Q 2003 441 2422 441 
Q 2931 441 3284 734 
Q 3638 1028 3763 1606 
z
" transform="scale(0.015625)"/>
     <path id="ArialMT-75" d="M 2597 0 
L 2597 488 
Q 2209 -75 1544 -75 
Q 1250 -75 995 37 
Q 741 150 617 320 
Q 494 491 444 738 
Q 409 903 409 1263 
L 409 3319 
L 972 3319 
L 972 1478 
Q 972 1038 1006 884 
Q 1059 663 1231 536 
Q 1403 409 1656 409 
Q 1909 409 2131 539 
Q 2353 669 2445 892 
Q 2538 1116 2538 1541 
L 2538 3319 
L 3100 3319 
L 3100 0 
L 2597 0 
z
" transform="scale(0.015625)"/>
     <path id="ArialMT-73" d="M 197 991 
L 753 1078 
Q 800 744 1014 566 
Q 1228 388 1613 388 
Q 2000 388 2187 545 
Q 2375 703 2375 916 
Q 2375 1106 2209 1216 
Q 2094 1291 1634 1406 
Q 1016 1563 777 1677 
Q 538 1791 414 1992 
Q 291 2194 291 2438 
Q 291 2659 392 2848 
Q 494 3038 669 3163 
Q 800 3259 1026 3326 
Q 1253 3394 1513 3394 
Q 1903 3394 2198 3281 
Q 2494 3169 2634 2976 
Q 2775 2784 2828 2463 
L 2278 2388 
Q 2241 2644 2061 2787 
Q 1881 2931 1553 2931 
Q 1166 2931 1000 2803 
Q 834 2675 834 2503 
Q 834 2394 903 2306 
Q 972 2216 1119 2156 
Q 1203 2125 1616 2013 
Q 2213 1853 2448 1751 
Q 2684 1650 2818 1456 
Q 2953 1263 2953 975 
Q 2953 694 2789 445 
Q 2625 197 2315 61 
Q 2006 -75 1616 -75 
Q 969 -75 630 194 
Q 291 463 197 991 
z
" transform="scale(0.015625)"/>
     <path id="ArialMT-72" d="M 416 0 
L 416 3319 
L 922 3319 
L 922 2816 
Q 1116 3169 1280 3281 
Q 1444 3394 1641 3394 
Q 1925 3394 2219 3213 
L 2025 2691 
Q 1819 2813 1613 2813 
Q 1428 2813 1281 2702 
Q 1134 2591 1072 2394 
Q 978 2094 978 1738 
L 978 0 
L 416 0 
z
" transform="scale(0.015625)"/>
     <path id="ArialMT-62" d="M 941 0 
L 419 0 
L 419 4581 
L 981 4581 
L 981 2947 
Q 1338 3394 1891 3394 
Q 2197 3394 2470 3270 
Q 2744 3147 2920 2923 
Q 3097 2700 3197 2384 
Q 3297 2069 3297 1709 
Q 3297 856 2875 390 
Q 2453 -75 1863 -75 
Q 1275 -75 941 416 
L 941 0 
z
M 934 1684 
Q 934 1088 1097 822 
Q 1363 388 1816 388 
Q 2184 388 2453 708 
Q 2722 1028 2722 1663 
Q 2722 2313 2464 2622 
Q 2206 2931 1841 2931 
Q 1472 2931 1203 2611 
Q 934 2291 934 1684 
z
" transform="scale(0.015625)"/>
    </defs>
    <use xlink:href="#ArialMT-56"/>
    <use xlink:href="#ArialMT-69" x="64.949219"/>
    <use xlink:href="#ArialMT-6f" x="87.166016"/>
    <use xlink:href="#ArialMT-6c" x="142.78125"/>
    <use xlink:href="#ArialMT-69" x="164.998047"/>
    <use xlink:href="#ArialMT-6e" x="187.214844"/>
    <use xlink:href="#ArialMT-20" x="242.830078"/>
    <use xlink:href="#ArialMT-50" x="270.613281"/>
    <use xlink:href="#ArialMT-6c" x="337.3125"/>
    <use xlink:href="#ArialMT-6f" x="359.529297"/>
    <use xlink:href="#ArialMT-74" x="415.144531"/>
    <use xlink:href="#ArialMT-20" x="442.927734"/>
    <use xlink:href="#ArialMT-6f" x="470.710938"/>
    <use xlink:href="#ArialMT-66" x="526.326172"/>
    <use xlink:href="#ArialMT-20" x="554.109375"/>
    <use xlink:href="#ArialMT-61" x="581.892578"/>
    <use xlink:href="#ArialMT-6c" x="637.507812"/>
    <use xlink:href="#ArialMT-6c" x="659.724609"/>
    <use xlink:href="#ArialMT-20" x="681.941406"/>
    <use xlink:href="#ArialMT-43" x="709.724609"/>
    <use xlink:href="#ArialMT-6f" x="781.941406"/>
    <use xlink:href="#ArialMT-6e" x="837.556641"/>
    <use xlink:href="#ArialMT-74" x="893.171875"/>
    <use xlink:href="#ArialMT-69" x="920.955078"/>
    <use xlink:href="#ArialMT-6e" x="943.171875"/>
    <use xlink:href="#ArialMT-75" x="998.787109"/>
    <use xlink:href="#ArialMT-6f" x="1054.402344"/>
    <use xlink:href="#ArialMT-75" x="1110.017578"/>
    <use xlink:href="#ArialMT-73" x="1165.632812"/>
    <use xlink:href="#ArialMT-20" x="1215.632812"/>
    <use xlink:href="#ArialMT-56" x="1243.416016"/>
    <use xlink:href="#ArialMT-61" x="1302.740234"/>
    <use xlink:href="#ArialMT-72" x="1358.355469"/>
    <use xlink:href="#ArialMT-69" x="1391.65625"/>
    <use xlink:href="#ArialMT-61" x="1413.873047"/>
    <use xlink:href="#ArialMT-62" x="1469.488281"/>
    <use xlink:href="#ArialMT-6c" x="1525.103516"/>
    <use xlink:href="#ArialMT-65" x="1547.320312"/>
    <use xlink:href="#ArialMT-73" x="1602.935547"/>
   </g>
  </g>
 </g>
 <defs>
  <clipPath id="p3fa1c338fc">
   <rect x="34.88" y="39.6" width="1032.16" height="215.86"/>
  </clipPath>
 </defs>
</svg>
