<?xml version="1.0" encoding="utf-8" standalone="no"?>
<!DOCTYPE svg PUBLIC "-//W3C//DTD SVG 1.1//EN"
  "http://www.w3.org/Graphics/SVG/1.1/DTD/svg11.dtd">
<svg xmlns:xlink="http://www.w3.org/1999/xlink" width="1080pt" height="288pt" viewBox="0 0 1080 288" xmlns="http://www.w3.org/2000/svg" version="1.1">
 <metadata>
  <rdf:RDF xmlns:dc="http://purl.org/dc/elements/1.1/" xmlns:cc="http://creativecommons.org/ns#" xmlns:rdf="http://www.w3.org/1999/02/22-rdf-syntax-ns#">
   <cc:Work>
    <dc:type rdf:resource="http://purl.org/dc/dcmitype/StillImage"/>
    <dc:date>2024-05-18T11:07:10.804100</dc:date>
    <dc:format>image/svg+xml</dc:format>
    <dc:creator>
     <cc:Agent>
      <dc:title>Matplotlib v3.8.4, https://matplotlib.org/</dc:title>
     </cc:Agent>
    </dc:creator>
   </cc:Work>
  </rdf:RDF>
 </metadata>
 <defs>
  <style type="text/css">*{stroke-linejoin: round; stroke-linecap: butt}</style>
 </defs>
 <g id="figure_1">
  <g id="patch_1">
   <path d="M 0 288 
L 1080 288 
L 1080 0 
L 0 0 
z
" style="fill: #ffffff"/>
  </g>
  <g id="axes_1">
   <g id="patch_2">
    <path d="M 34.97 255.46 
L 1067.04 255.46 
L 1067.04 41.381126 
L 34.97 41.381126 
z
" style="fill: #ffffff"/>
   </g>
   <g id="matplotlib.axis_1">
    <g id="xtick_1">
     <g id="line2d_1">
      <defs>
       <path id="m4239047aa1" d="M 0 0 
L 0 6 
" style="stroke: #262626; stroke-width: 1.25"/>
      </defs>
      <g>
       <use xlink:href="#m4239047aa1" x="292.9875" y="255.46" style="fill: #262626; stroke: #262626; stroke-width: 1.25"/>
      </g>
     </g>
     <g id="text_1">
      <!-- Weight -->
      <g style="fill: #262626" transform="translate(275.966719 272.833594) scale(0.11 -0.11)">
       <defs>
        <path id="ArialMT-57" d="M 1294 0 
L 78 4581 
L 700 4581 
L 1397 1578 
Q 1509 1106 1591 641 
Q 1766 1375 1797 1488 
L 2669 4581 
L 3400 4581 
L 4056 2263 
Q 4303 1400 4413 641 
Q 4500 1075 4641 1638 
L 5359 4581 
L 5969 4581 
L 4713 0 
L 4128 0 
L 3163 3491 
Q 3041 3928 3019 4028 
Q 2947 3713 2884 3491 
L 1913 0 
L 1294 0 
z
" transform="scale(0.015625)"/>
        <path id="ArialMT-65" d="M 2694 1069 
L 3275 997 
Q 3138 488 2766 206 
Q 2394 -75 1816 -75 
Q 1088 -75 661 373 
Q 234 822 234 1631 
Q 234 2469 665 2931 
Q 1097 3394 1784 3394 
Q 2450 3394 2872 2941 
Q 3294 2488 3294 1666 
Q 3294 1616 3291 1516 
L 816 1516 
Q 847 969 1125 678 
Q 1403 388 1819 388 
Q 2128 388 2347 550 
Q 2566 713 2694 1069 
z
M 847 1978 
L 2700 1978 
Q 2663 2397 2488 2606 
Q 2219 2931 1791 2931 
Q 1403 2931 1139 2672 
Q 875 2413 847 1978 
z
" transform="scale(0.015625)"/>
        <path id="ArialMT-69" d="M 425 3934 
L 425 4581 
L 988 4581 
L 988 3934 
L 425 3934 
z
M 425 0 
L 425 3319 
L 988 3319 
L 988 0 
L 425 0 
z
" transform="scale(0.015625)"/>
        <path id="ArialMT-67" d="M 319 -275 
L 866 -356 
Q 900 -609 1056 -725 
Q 1266 -881 1628 -881 
Q 2019 -881 2231 -725 
Q 2444 -569 2519 -288 
Q 2563 -116 2559 434 
Q 2191 0 1641 0 
Q 956 0 581 494 
Q 206 988 206 1678 
Q 206 2153 378 2554 
Q 550 2956 876 3175 
Q 1203 3394 1644 3394 
Q 2231 3394 2613 2919 
L 2613 3319 
L 3131 3319 
L 3131 450 
Q 3131 -325 2973 -648 
Q 2816 -972 2473 -1159 
Q 2131 -1347 1631 -1347 
Q 1038 -1347 672 -1080 
Q 306 -813 319 -275 
z
M 784 1719 
Q 784 1066 1043 766 
Q 1303 466 1694 466 
Q 2081 466 2343 764 
Q 2606 1063 2606 1700 
Q 2606 2309 2336 2618 
Q 2066 2928 1684 2928 
Q 1309 2928 1046 2623 
Q 784 2319 784 1719 
z
" transform="scale(0.015625)"/>
        <path id="ArialMT-68" d="M 422 0 
L 422 4581 
L 984 4581 
L 984 2938 
Q 1378 3394 1978 3394 
Q 2347 3394 2619 3248 
Q 2891 3103 3008 2847 
Q 3125 2591 3125 2103 
L 3125 0 
L 2563 0 
L 2563 2103 
Q 2563 2525 2380 2717 
Q 2197 2909 1863 2909 
Q 1613 2909 1392 2779 
Q 1172 2650 1078 2428 
Q 984 2206 984 1816 
L 984 0 
L 422 0 
z
" transform="scale(0.015625)"/>
        <path id="ArialMT-74" d="M 1650 503 
L 1731 6 
Q 1494 -44 1306 -44 
Q 1000 -44 831 53 
Q 663 150 594 308 
Q 525 466 525 972 
L 525 2881 
L 113 2881 
L 113 3319 
L 525 3319 
L 525 4141 
L 1084 4478 
L 1084 3319 
L 1650 3319 
L 1650 2881 
L 1084 2881 
L 1084 941 
Q 1084 700 1114 631 
Q 1144 563 1211 522 
Q 1278 481 1403 481 
Q 1497 481 1650 503 
z
" transform="scale(0.015625)"/>
       </defs>
       <use xlink:href="#ArialMT-57"/>
       <use xlink:href="#ArialMT-65" x="92.634766"/>
       <use xlink:href="#ArialMT-69" x="148.25"/>
       <use xlink:href="#ArialMT-67" x="170.466797"/>
       <use xlink:href="#ArialMT-68" x="226.082031"/>
       <use xlink:href="#ArialMT-74" x="281.697266"/>
      </g>
     </g>
    </g>
    <g id="xtick_2">
     <g id="line2d_2">
      <g>
       <use xlink:href="#m4239047aa1" x="809.0225" y="255.46" style="fill: #262626; stroke: #262626; stroke-width: 1.25"/>
      </g>
     </g>
     <g id="text_2">
      <!-- 20 -->
      <g style="fill: #262626" transform="translate(802.905469 272.833594) scale(0.11 -0.11)">
       <defs>
        <path id="ArialMT-32" d="M 3222 541 
L 3222 0 
L 194 0 
Q 188 203 259 391 
Q 375 700 629 1000 
Q 884 1300 1366 1694 
Q 2113 2306 2375 2664 
Q 2638 3022 2638 3341 
Q 2638 3675 2398 3904 
Q 2159 4134 1775 4134 
Q 1369 4134 1125 3890 
Q 881 3647 878 3216 
L 300 3275 
Q 359 3922 746 4261 
Q 1134 4600 1788 4600 
Q 2447 4600 2831 4234 
Q 3216 3869 3216 3328 
Q 3216 3053 3103 2787 
Q 2991 2522 2730 2228 
Q 2469 1934 1863 1422 
Q 1356 997 1212 845 
Q 1069 694 975 541 
L 3222 541 
z
" transform="scale(0.015625)"/>
        <path id="ArialMT-30" d="M 266 2259 
Q 266 3072 433 3567 
Q 600 4063 929 4331 
Q 1259 4600 1759 4600 
Q 2128 4600 2406 4451 
Q 2684 4303 2865 4023 
Q 3047 3744 3150 3342 
Q 3253 2941 3253 2259 
Q 3253 1453 3087 958 
Q 2922 463 2592 192 
Q 2263 -78 1759 -78 
Q 1097 -78 719 397 
Q 266 969 266 2259 
z
M 844 2259 
Q 844 1131 1108 757 
Q 1372 384 1759 384 
Q 2147 384 2411 759 
Q 2675 1134 2675 2259 
Q 2675 3391 2411 3762 
Q 2147 4134 1753 4134 
Q 1366 4134 1134 3806 
Q 844 3388 844 2259 
z
" transform="scale(0.015625)"/>
       </defs>
       <use xlink:href="#ArialMT-32"/>
       <use xlink:href="#ArialMT-30" x="55.615234"/>
      </g>
     </g>
    </g>
   </g>
   <g id="matplotlib.axis_2">
    <g id="ytick_1">
     <g id="line2d_3">
      <defs>
       <path id="m8f810a1b55" d="M 0 0 
L -6 0 
" style="stroke: #262626; stroke-width: 1.25"/>
      </defs>
      <g>
       <use xlink:href="#m8f810a1b55" x="34.97" y="229.761777" style="fill: #262626; stroke: #262626; stroke-width: 1.25"/>
      </g>
     </g>
     <g id="text_3">
      <!-- −3 -->
      <g style="fill: #262626" transform="translate(12.928281 233.698574) scale(0.11 -0.11)">
       <defs>
        <path id="ArialMT-2212" d="M 3381 1997 
L 356 1997 
L 356 2522 
L 3381 2522 
L 3381 1997 
z
" transform="scale(0.015625)"/>
        <path id="ArialMT-33" d="M 269 1209 
L 831 1284 
Q 928 806 1161 595 
Q 1394 384 1728 384 
Q 2125 384 2398 659 
Q 2672 934 2672 1341 
Q 2672 1728 2419 1979 
Q 2166 2231 1775 2231 
Q 1616 2231 1378 2169 
L 1441 2663 
Q 1497 2656 1531 2656 
Q 1891 2656 2178 2843 
Q 2466 3031 2466 3422 
Q 2466 3731 2256 3934 
Q 2047 4138 1716 4138 
Q 1388 4138 1169 3931 
Q 950 3725 888 3313 
L 325 3413 
Q 428 3978 793 4289 
Q 1159 4600 1703 4600 
Q 2078 4600 2393 4439 
Q 2709 4278 2876 4000 
Q 3044 3722 3044 3409 
Q 3044 3113 2884 2869 
Q 2725 2625 2413 2481 
Q 2819 2388 3044 2092 
Q 3269 1797 3269 1353 
Q 3269 753 2831 336 
Q 2394 -81 1725 -81 
Q 1122 -81 723 278 
Q 325 638 269 1209 
z
" transform="scale(0.015625)"/>
       </defs>
       <use xlink:href="#ArialMT-2212"/>
       <use xlink:href="#ArialMT-33" x="58.398438"/>
      </g>
     </g>
    </g>
    <g id="ytick_2">
     <g id="line2d_4">
      <g>
       <use xlink:href="#m8f810a1b55" x="34.97" y="198.715569" style="fill: #262626; stroke: #262626; stroke-width: 1.25"/>
      </g>
     </g>
     <g id="text_4">
      <!-- −2 -->
      <g style="fill: #262626" transform="translate(12.928281 202.652366) scale(0.11 -0.11)">
       <use xlink:href="#ArialMT-2212"/>
       <use xlink:href="#ArialMT-32" x="58.398438"/>
      </g>
     </g>
    </g>
    <g id="ytick_3">
     <g id="line2d_5">
      <g>
       <use xlink:href="#m8f810a1b55" x="34.97" y="167.669361" style="fill: #262626; stroke: #262626; stroke-width: 1.25"/>
      </g>
     </g>
     <g id="text_5">
      <!-- −1 -->
      <g style="fill: #262626" transform="translate(12.928281 171.606158) scale(0.11 -0.11)">
       <defs>
        <path id="ArialMT-31" d="M 2384 0 
L 1822 0 
L 1822 3584 
Q 1619 3391 1289 3197 
Q 959 3003 697 2906 
L 697 3450 
Q 1169 3672 1522 3987 
Q 1875 4303 2022 4600 
L 2384 4600 
L 2384 0 
z
" transform="scale(0.015625)"/>
       </defs>
       <use xlink:href="#ArialMT-2212"/>
       <use xlink:href="#ArialMT-31" x="58.398438"/>
      </g>
     </g>
    </g>
    <g id="ytick_4">
     <g id="line2d_6">
      <g>
       <use xlink:href="#m8f810a1b55" x="34.97" y="136.623153" style="fill: #262626; stroke: #262626; stroke-width: 1.25"/>
      </g>
     </g>
     <g id="text_6">
      <!-- 0 -->
      <g style="fill: #262626" transform="translate(19.352969 140.55995) scale(0.11 -0.11)">
       <use xlink:href="#ArialMT-30"/>
      </g>
     </g>
    </g>
    <g id="ytick_5">
     <g id="line2d_7">
      <g>
       <use xlink:href="#m8f810a1b55" x="34.97" y="105.576946" style="fill: #262626; stroke: #262626; stroke-width: 1.25"/>
      </g>
     </g>
     <g id="text_7">
      <!-- 1 -->
      <g style="fill: #262626" transform="translate(19.352969 109.513743) scale(0.11 -0.11)">
       <use xlink:href="#ArialMT-31"/>
      </g>
     </g>
    </g>
    <g id="ytick_6">
     <g id="line2d_8">
      <g>
       <use xlink:href="#m8f810a1b55" x="34.97" y="74.530738" style="fill: #262626; stroke: #262626; stroke-width: 1.25"/>
      </g>
     </g>
     <g id="text_8">
      <!-- 2 -->
      <g style="fill: #262626" transform="translate(19.352969 78.467535) scale(0.11 -0.11)">
       <use xlink:href="#ArialMT-32"/>
      </g>
     </g>
    </g>
    <g id="ytick_7">
     <g id="line2d_9">
      <g>
       <use xlink:href="#m8f810a1b55" x="34.97" y="43.48453" style="fill: #262626; stroke: #262626; stroke-width: 1.25"/>
      </g>
     </g>
     <g id="text_9">
      <!-- 3 -->
      <g style="fill: #262626" transform="translate(19.352969 47.421327) scale(0.11 -0.11)">
       <use xlink:href="#ArialMT-33"/>
      </g>
     </g>
    </g>
   </g>
   <g id="PolyCollection_1">
    <defs>
     <path id="m331daafe3b" d="M 295.238094 -42.270858 
L 290.736906 -42.270858 
L 290.136796 -44.236688 
L 289.428679 -46.202518 
L 288.6083 -48.168348 
L 287.675415 -50.134177 
L 286.634499 -52.100007 
L 285.495139 -54.065837 
L 284.271989 -56.031667 
L 282.984177 -57.997497 
L 281.654094 -59.963327 
L 280.305553 -61.929157 
L 278.961374 -63.894987 
L 277.640536 -65.860816 
L 276.355099 -67.826646 
L 275.10717 -69.792476 
L 273.886249 -71.758306 
L 272.667261 -73.724136 
L 271.4096 -75.689966 
L 270.057432 -77.655796 
L 268.541416 -79.621626 
L 266.781872 -81.587456 
L 264.693311 -83.553285 
L 262.190073 -85.519115 
L 259.192712 -87.484945 
L 255.634646 -89.450775 
L 251.468541 -91.416605 
L 246.671856 -93.382435 
L 241.251025 -95.348265 
L 235.243836 -97.314095 
L 228.719674 -99.279924 
L 221.777499 -101.245754 
L 214.541577 -103.211584 
L 207.155184 -105.177414 
L 199.772698 -107.143244 
L 192.550593 -109.109074 
L 185.637984 -111.074904 
L 179.167384 -113.040734 
L 173.246358 -115.006564 
L 167.95064 -116.972393 
L 163.319236 -118.938223 
L 159.351829 -120.904053 
L 156.008712 -122.869883 
L 153.213253 -124.835713 
L 150.856786 -126.801543 
L 148.805653 -128.767373 
L 146.910001 -130.733203 
L 145.013845 -132.699032 
L 142.965808 -134.664862 
L 140.629894 -136.630692 
L 137.895632 -138.596522 
L 134.686902 -140.562352 
L 130.968832 -142.528182 
L 126.752206 -144.494012 
L 122.09499 -146.459842 
L 117.100748 -148.425672 
L 111.913942 -150.391501 
L 106.712349 -152.357331 
L 101.697076 -154.323161 
L 97.080859 -156.288991 
L 93.075488 -158.254821 
L 89.879304 -160.220651 
L 87.665702 -162.186481 
L 86.5735 -164.152311 
L 86.699839 -166.11814 
L 88.096077 -168.08397 
L 90.766843 -170.0498 
L 94.672133 -172.01563 
L 99.732109 -173.98146 
L 105.834006 -175.94729 
L 112.84046 -177.91312 
L 120.598479 -179.87895 
L 128.948318 -181.844779 
L 137.731593 -183.810609 
L 146.798121 -185.776439 
L 156.011135 -187.742269 
L 165.250712 -189.708099 
L 174.415438 -191.673929 
L 183.422462 -193.639759 
L 192.206254 -195.605589 
L 200.716405 -197.571419 
L 208.914881 -199.537248 
L 216.773117 -201.503078 
L 224.269284 -203.468908 
L 231.386 -205.434738 
L 238.10865 -207.400568 
L 244.424398 -209.366398 
L 250.321859 -211.332228 
L 255.791343 -213.298058 
L 260.825499 -215.263887 
L 265.420193 -217.229717 
L 269.575406 -219.195547 
L 273.295994 -221.161377 
L 276.592175 -223.127207 
L 279.479664 -225.093037 
L 281.979418 -227.058867 
L 284.11704 -229.024697 
L 285.921871 -230.990527 
L 287.425902 -232.956356 
L 288.662581 -234.922186 
L 289.665631 -236.888016 
L 296.309369 -236.888016 
L 296.309369 -236.888016 
L 297.312419 -234.922186 
L 298.549098 -232.956356 
L 300.053129 -230.990527 
L 301.85796 -229.024697 
L 303.995582 -227.058867 
L 306.495336 -225.093037 
L 309.382825 -223.127207 
L 312.679006 -221.161377 
L 316.399594 -219.195547 
L 320.554807 -217.229717 
L 325.149501 -215.263887 
L 330.183657 -213.298058 
L 335.653141 -211.332228 
L 341.550602 -209.366398 
L 347.86635 -207.400568 
L 354.589 -205.434738 
L 361.705716 -203.468908 
L 369.201883 -201.503078 
L 377.060119 -199.537248 
L 385.258595 -197.571419 
L 393.768746 -195.605589 
L 402.552538 -193.639759 
L 411.559562 -191.673929 
L 420.724288 -189.708099 
L 429.963865 -187.742269 
L 439.176879 -185.776439 
L 448.243407 -183.810609 
L 457.026682 -181.844779 
L 465.376521 -179.87895 
L 473.13454 -177.91312 
L 480.140994 -175.94729 
L 486.242891 -173.98146 
L 491.302867 -172.01563 
L 495.208157 -170.0498 
L 497.878923 -168.08397 
L 499.275161 -166.11814 
L 499.4015 -164.152311 
L 498.309298 -162.186481 
L 496.095696 -160.220651 
L 492.899512 -158.254821 
L 488.894141 -156.288991 
L 484.277924 -154.323161 
L 479.262651 -152.357331 
L 474.061058 -150.391501 
L 468.874252 -148.425672 
L 463.88001 -146.459842 
L 459.222794 -144.494012 
L 455.006168 -142.528182 
L 451.288098 -140.562352 
L 448.079368 -138.596522 
L 445.345106 -136.630692 
L 443.009192 -134.664862 
L 440.961155 -132.699032 
L 439.064999 -130.733203 
L 437.169347 -128.767373 
L 435.118214 -126.801543 
L 432.761747 -124.835713 
L 429.966288 -122.869883 
L 426.623171 -120.904053 
L 422.655764 -118.938223 
L 418.02436 -116.972393 
L 412.728642 -115.006564 
L 406.807616 -113.040734 
L 400.337016 -111.074904 
L 393.424407 -109.109074 
L 386.202302 -107.143244 
L 378.819816 -105.177414 
L 371.433423 -103.211584 
L 364.197501 -101.245754 
L 357.255326 -99.279924 
L 350.731164 -97.314095 
L 344.723975 -95.348265 
L 339.303144 -93.382435 
L 334.506459 -91.416605 
L 330.340354 -89.450775 
L 326.782288 -87.484945 
L 323.784927 -85.519115 
L 321.281689 -83.553285 
L 319.193128 -81.587456 
L 317.433584 -79.621626 
L 315.917568 -77.655796 
L 314.5654 -75.689966 
L 313.307739 -73.724136 
L 312.088751 -71.758306 
L 310.86783 -69.792476 
L 309.619901 -67.826646 
L 308.334464 -65.860816 
L 307.013626 -63.894987 
L 305.669447 -61.929157 
L 304.320906 -59.963327 
L 302.990823 -57.997497 
L 301.703011 -56.031667 
L 300.479861 -54.065837 
L 299.340501 -52.100007 
L 298.299585 -50.134177 
L 297.3667 -48.168348 
L 296.546321 -46.202518 
L 295.838204 -44.236688 
L 295.238094 -42.270858 
z
" style="stroke: #484848; stroke-width: 3"/>
    </defs>
    <g clip-path="url(#pf11b1bc9ad)">
     <use xlink:href="#m331daafe3b" x="0" y="288" style="fill: #cb3335; stroke: #484848; stroke-width: 3"/>
    </g>
   </g>
   <g id="PolyCollection_2">
    <defs>
     <path id="mdbb5c52852" d="M 820.671767 -90.267585 
L 797.373233 -90.267585 
L 794.952785 -91.707794 
L 792.145388 -93.148004 
L 788.914771 -94.588213 
L 785.226384 -96.028422 
L 781.048567 -97.468631 
L 776.353825 -98.908841 
L 771.120174 -100.34905 
L 765.332526 -101.789259 
L 758.984056 -103.229468 
L 752.077535 -104.669678 
L 744.626552 -106.109887 
L 736.656587 -107.550096 
L 728.205881 -108.990305 
L 719.326054 -110.430515 
L 710.082415 -111.870724 
L 700.553926 -113.310933 
L 690.832783 -114.751142 
L 681.023569 -116.191352 
L 671.241983 -117.631561 
L 661.613113 -119.07177 
L 652.269279 -120.511979 
L 643.347464 -121.952189 
L 634.986367 -123.392398 
L 627.32317 -124.832607 
L 620.49007 -126.272816 
L 614.610705 -127.713026 
L 609.796578 -129.153235 
L 606.143618 -130.593444 
L 603.729021 -132.033653 
L 602.6085 -133.473863 
L 602.814081 -134.914072 
L 604.352558 -136.354281 
L 607.204706 -137.79449 
L 611.325294 -139.2347 
L 616.643944 -140.674909 
L 623.066801 -142.115118 
L 630.478967 -143.555327 
L 638.747598 -144.995537 
L 647.72554 -146.435746 
L 657.255339 -147.875955 
L 667.17346 -149.316165 
L 677.314528 -150.756374 
L 687.51542 -152.196583 
L 697.619048 -153.636792 
L 707.477698 -155.077002 
L 716.955814 -156.517211 
L 725.932182 -157.95742 
L 734.301473 -159.397629 
L 741.975153 -160.837839 
L 748.881838 -162.278048 
L 754.967133 -163.718257 
L 760.193079 -165.158466 
L 764.537307 -166.598676 
L 767.992008 -168.038885 
L 770.562831 -169.479094 
L 772.267778 -170.919303 
L 773.136182 -172.359513 
L 773.207798 -173.799722 
L 772.532018 -175.239931 
L 771.167199 -176.68014 
L 769.180072 -178.12035 
L 766.645168 -179.560559 
L 763.6442 -181.000768 
L 760.265331 -182.440977 
L 756.602263 -183.881187 
L 752.753101 -185.321396 
L 748.818936 -186.761605 
L 744.902172 -188.201814 
L 741.104583 -189.642024 
L 737.52516 -191.082233 
L 734.257812 -192.522442 
L 731.389026 -193.962651 
L 728.995566 -195.402861 
L 727.142361 -196.84307 
L 725.880666 -198.283279 
L 725.246623 -199.723488 
L 725.260298 -201.163698 
L 725.925266 -202.603907 
L 727.228777 -204.044116 
L 729.1425 -205.484325 
L 731.623823 -206.924535 
L 734.61765 -208.364744 
L 738.058593 -209.804953 
L 741.873468 -211.245162 
L 745.983964 -212.685372 
L 750.309363 -214.125581 
L 754.769178 -215.56579 
L 759.285613 -217.005999 
L 763.785726 -218.446209 
L 768.203246 -219.886418 
L 772.479963 -221.326627 
L 776.566698 -222.766836 
L 780.423826 -224.207046 
L 784.021392 -225.647255 
L 787.338851 -227.087464 
L 790.364495 -228.527673 
L 793.094629 -229.967883 
L 795.532564 -231.408092 
L 797.687495 -232.848301 
L 820.357505 -232.848301 
L 820.357505 -232.848301 
L 822.512436 -231.408092 
L 824.950371 -229.967883 
L 827.680505 -228.527673 
L 830.706149 -227.087464 
L 834.023608 -225.647255 
L 837.621174 -224.207046 
L 841.478302 -222.766836 
L 845.565037 -221.326627 
L 849.841754 -219.886418 
L 854.259274 -218.446209 
L 858.759387 -217.005999 
L 863.275822 -215.56579 
L 867.735637 -214.125581 
L 872.061036 -212.685372 
L 876.171532 -211.245162 
L 879.986407 -209.804953 
L 883.42735 -208.364744 
L 886.421177 -206.924535 
L 888.9025 -205.484325 
L 890.816223 -204.044116 
L 892.119734 -202.603907 
L 892.784702 -201.163698 
L 892.798377 -199.723488 
L 892.164334 -198.283279 
L 890.902639 -196.84307 
L 889.049434 -195.402861 
L 886.655974 -193.962651 
L 883.787188 -192.522442 
L 880.51984 -191.082233 
L 876.940417 -189.642024 
L 873.142828 -188.201814 
L 869.226064 -186.761605 
L 865.291899 -185.321396 
L 861.442737 -183.881187 
L 857.779669 -182.440977 
L 854.4008 -181.000768 
L 851.399832 -179.560559 
L 848.864928 -178.12035 
L 846.877801 -176.68014 
L 845.512982 -175.239931 
L 844.837202 -173.799722 
L 844.908818 -172.359513 
L 845.777222 -170.919303 
L 847.482169 -169.479094 
L 850.052992 -168.038885 
L 853.507693 -166.598676 
L 857.851921 -165.158466 
L 863.077867 -163.718257 
L 869.163162 -162.278048 
L 876.069847 -160.837839 
L 883.743527 -159.397629 
L 892.112818 -157.95742 
L 901.089186 -156.517211 
L 910.567302 -155.077002 
L 920.425952 -153.636792 
L 930.52958 -152.196583 
L 940.730472 -150.756374 
L 950.87154 -149.316165 
L 960.789661 -147.875955 
L 970.31946 -146.435746 
L 979.297402 -144.995537 
L 987.566033 -143.555327 
L 994.978199 -142.115118 
L 1001.401056 -140.674909 
L 1006.719706 -139.2347 
L 1010.840294 -137.79449 
L 1013.692442 -136.354281 
L 1015.230919 -134.914072 
L 1015.4365 -133.473863 
L 1014.315979 -132.033653 
L 1011.901382 -130.593444 
L 1008.248422 -129.153235 
L 1003.434295 -127.713026 
L 997.55493 -126.272816 
L 990.72183 -124.832607 
L 983.058633 -123.392398 
L 974.697536 -121.952189 
L 965.775721 -120.511979 
L 956.431887 -119.07177 
L 946.803017 -117.631561 
L 937.021431 -116.191352 
L 927.212217 -114.751142 
L 917.491074 -113.310933 
L 907.962585 -111.870724 
L 898.718946 -110.430515 
L 889.839119 -108.990305 
L 881.388413 -107.550096 
L 873.418448 -106.109887 
L 865.967465 -104.669678 
L 859.060944 -103.229468 
L 852.712474 -101.789259 
L 846.924826 -100.34905 
L 841.691175 -98.908841 
L 836.996433 -97.468631 
L 832.818616 -96.028422 
L 829.130229 -94.588213 
L 825.899612 -93.148004 
L 823.092215 -91.707794 
L 820.671767 -90.267585 
z
" style="stroke: #484848; stroke-width: 3"/>
    </defs>
    <g clip-path="url(#pf11b1bc9ad)">
     <use xlink:href="#mdbb5c52852" x="0" y="288" style="fill: #477ca8; stroke: #484848; stroke-width: 3"/>
    </g>
   </g>
   <g id="line2d_10">
    <path d="M 292.9875 213.366506 
L 292.9875 83.47462 
" clip-path="url(#pf11b1bc9ad)" style="fill: none; stroke: #484848; stroke-width: 4.5; stroke-linecap: round"/>
   </g>
   <g id="line2d_11">
    <path d="M 292.9875 159.3753 
L 292.9875 115.947591 
" clip-path="url(#pf11b1bc9ad)" style="fill: none; stroke: #484848; stroke-width: 13.5; stroke-linecap: round"/>
   </g>
   <g id="line2d_12">
    <path d="M 292.9875 127.293569 
" clip-path="url(#pf11b1bc9ad)" style="fill: none; stroke: #484848; stroke-width: 1.5; stroke-linecap: round"/>
    <defs>
     <path id="m56631f299b" d="M 5.625 0 
L -5.625 -0 
" style="stroke: #ffffff; stroke-width: 2.7"/>
    </defs>
    <g clip-path="url(#pf11b1bc9ad)">
     <use xlink:href="#m56631f299b" x="292.9875" y="127.293569" style="fill: #ffffff; stroke: #ffffff; stroke-width: 2.7"/>
    </g>
   </g>
   <g id="line2d_13">
    <path d="M 809.0225 165.369779 
L 809.0225 87.514335 
" clip-path="url(#pf11b1bc9ad)" style="fill: none; stroke: #484848; stroke-width: 4.5; stroke-linecap: round"/>
   </g>
   <g id="line2d_14">
    <path d="M 809.0225 149.79869 
L 809.0225 103.085424 
" clip-path="url(#pf11b1bc9ad)" style="fill: none; stroke: #484848; stroke-width: 13.5; stroke-linecap: round"/>
   </g>
   <g id="line2d_15">
    <path d="M 809.0225 149.79869 
" clip-path="url(#pf11b1bc9ad)" style="fill: none; stroke: #484848; stroke-width: 1.5; stroke-linecap: round"/>
    <g clip-path="url(#pf11b1bc9ad)">
     <use xlink:href="#m56631f299b" x="809.0225" y="149.79869" style="fill: #ffffff; stroke: #ffffff; stroke-width: 2.7"/>
    </g>
   </g>
   <g id="patch_3">
    <path d="M 34.97 255.46 
L 34.97 41.381126 
" style="fill: none; stroke: #262626; stroke-width: 1.25; stroke-linejoin: miter; stroke-linecap: square"/>
   </g>
   <g id="patch_4">
    <path d="M 1067.04 255.46 
L 1067.04 41.381126 
" style="fill: none; stroke: #262626; stroke-width: 1.25; stroke-linejoin: miter; stroke-linecap: square"/>
   </g>
   <g id="patch_5">
    <path d="M 34.97 255.46 
L 1067.04 255.46 
" style="fill: none; stroke: #262626; stroke-width: 1.25; stroke-linejoin: miter; stroke-linecap: square"/>
   </g>
   <g id="patch_6">
    <path d="M 34.97 41.381126 
L 1067.04 41.381126 
" style="fill: none; stroke: #262626; stroke-width: 1.25; stroke-linejoin: miter; stroke-linecap: square"/>
   </g>
  </g>
  <g id="text_10">
   <!-- Violin Plot of all Continuous Variables -->
   <g style="fill: #262626" transform="translate(416.035547 16.496719) scale(0.15 -0.15)">
    <defs>
     <path id="ArialMT-56" d="M 1803 0 
L 28 4581 
L 684 4581 
L 1875 1253 
Q 2019 853 2116 503 
Q 2222 878 2363 1253 
L 3600 4581 
L 4219 4581 
L 2425 0 
L 1803 0 
z
" transform="scale(0.015625)"/>
     <path id="ArialMT-6f" d="M 213 1659 
Q 213 2581 725 3025 
Q 1153 3394 1769 3394 
Q 2453 3394 2887 2945 
Q 3322 2497 3322 1706 
Q 3322 1066 3130 698 
Q 2938 331 2570 128 
Q 2203 -75 1769 -75 
Q 1072 -75 642 372 
Q 213 819 213 1659 
z
M 791 1659 
Q 791 1022 1069 705 
Q 1347 388 1769 388 
Q 2188 388 2466 706 
Q 2744 1025 2744 1678 
Q 2744 2294 2464 2611 
Q 2184 2928 1769 2928 
Q 1347 2928 1069 2612 
Q 791 2297 791 1659 
z
" transform="scale(0.015625)"/>
     <path id="ArialMT-6c" d="M 409 0 
L 409 4581 
L 972 4581 
L 972 0 
L 409 0 
z
" transform="scale(0.015625)"/>
     <path id="ArialMT-6e" d="M 422 0 
L 422 3319 
L 928 3319 
L 928 2847 
Q 1294 3394 1984 3394 
Q 2284 3394 2536 3286 
Q 2788 3178 2913 3003 
Q 3038 2828 3088 2588 
Q 3119 2431 3119 2041 
L 3119 0 
L 2556 0 
L 2556 2019 
Q 2556 2363 2490 2533 
Q 2425 2703 2258 2804 
Q 2091 2906 1866 2906 
Q 1506 2906 1245 2678 
Q 984 2450 984 1813 
L 984 0 
L 422 0 
z
" transform="scale(0.015625)"/>
     <path id="ArialMT-20" transform="scale(0.015625)"/>
     <path id="ArialMT-50" d="M 494 0 
L 494 4581 
L 2222 4581 
Q 2678 4581 2919 4538 
Q 3256 4481 3484 4323 
Q 3713 4166 3852 3881 
Q 3991 3597 3991 3256 
Q 3991 2672 3619 2267 
Q 3247 1863 2275 1863 
L 1100 1863 
L 1100 0 
L 494 0 
z
M 1100 2403 
L 2284 2403 
Q 2872 2403 3119 2622 
Q 3366 2841 3366 3238 
Q 3366 3525 3220 3729 
Q 3075 3934 2838 4000 
Q 2684 4041 2272 4041 
L 1100 4041 
L 1100 2403 
z
" transform="scale(0.015625)"/>
     <path id="ArialMT-66" d="M 556 0 
L 556 2881 
L 59 2881 
L 59 3319 
L 556 3319 
L 556 3672 
Q 556 4006 616 4169 
Q 697 4388 901 4523 
Q 1106 4659 1475 4659 
Q 1713 4659 2000 4603 
L 1916 4113 
Q 1741 4144 1584 4144 
Q 1328 4144 1222 4034 
Q 1116 3925 1116 3625 
L 1116 3319 
L 1763 3319 
L 1763 2881 
L 1116 2881 
L 1116 0 
L 556 0 
z
" transform="scale(0.015625)"/>
     <path id="ArialMT-61" d="M 2588 409 
Q 2275 144 1986 34 
Q 1697 -75 1366 -75 
Q 819 -75 525 192 
Q 231 459 231 875 
Q 231 1119 342 1320 
Q 453 1522 633 1644 
Q 813 1766 1038 1828 
Q 1203 1872 1538 1913 
Q 2219 1994 2541 2106 
Q 2544 2222 2544 2253 
Q 2544 2597 2384 2738 
Q 2169 2928 1744 2928 
Q 1347 2928 1158 2789 
Q 969 2650 878 2297 
L 328 2372 
Q 403 2725 575 2942 
Q 747 3159 1072 3276 
Q 1397 3394 1825 3394 
Q 2250 3394 2515 3294 
Q 2781 3194 2906 3042 
Q 3031 2891 3081 2659 
Q 3109 2516 3109 2141 
L 3109 1391 
Q 3109 606 3145 398 
Q 3181 191 3288 0 
L 2700 0 
Q 2613 175 2588 409 
z
M 2541 1666 
Q 2234 1541 1622 1453 
Q 1275 1403 1131 1340 
Q 988 1278 909 1158 
Q 831 1038 831 891 
Q 831 666 1001 516 
Q 1172 366 1500 366 
Q 1825 366 2078 508 
Q 2331 650 2450 897 
Q 2541 1088 2541 1459 
L 2541 1666 
z
" transform="scale(0.015625)"/>
     <path id="ArialMT-43" d="M 3763 1606 
L 4369 1453 
Q 4178 706 3683 314 
Q 3188 -78 2472 -78 
Q 1731 -78 1267 223 
Q 803 525 561 1097 
Q 319 1669 319 2325 
Q 319 3041 592 3573 
Q 866 4106 1370 4382 
Q 1875 4659 2481 4659 
Q 3169 4659 3637 4309 
Q 4106 3959 4291 3325 
L 3694 3184 
Q 3534 3684 3231 3912 
Q 2928 4141 2469 4141 
Q 1941 4141 1586 3887 
Q 1231 3634 1087 3207 
Q 944 2781 944 2328 
Q 944 1744 1114 1308 
Q 1284 872 1643 656 
Q 2003 441 2422 441 
Q 2931 441 3284 734 
Q 3638 1028 3763 1606 
z
" transform="scale(0.015625)"/>
     <path id="ArialMT-75" d="M 2597 0 
L 2597 488 
Q 2209 -75 1544 -75 
Q 1250 -75 995 37 
Q 741 150 617 320 
Q 494 491 444 738 
Q 409 903 409 1263 
L 409 3319 
L 972 3319 
L 972 1478 
Q 972 1038 1006 884 
Q 1059 663 1231 536 
Q 1403 409 1656 409 
Q 1909 409 2131 539 
Q 2353 669 2445 892 
Q 2538 1116 2538 1541 
L 2538 3319 
L 3100 3319 
L 3100 0 
L 2597 0 
z
" transform="scale(0.015625)"/>
     <path id="ArialMT-73" d="M 197 991 
L 753 1078 
Q 800 744 1014 566 
Q 1228 388 1613 388 
Q 2000 388 2187 545 
Q 2375 703 2375 916 
Q 2375 1106 2209 1216 
Q 2094 1291 1634 1406 
Q 1016 1563 777 1677 
Q 538 1791 414 1992 
Q 291 2194 291 2438 
Q 291 2659 392 2848 
Q 494 3038 669 3163 
Q 800 3259 1026 3326 
Q 1253 3394 1513 3394 
Q 1903 3394 2198 3281 
Q 2494 3169 2634 2976 
Q 2775 2784 2828 2463 
L 2278 2388 
Q 2241 2644 2061 2787 
Q 1881 2931 1553 2931 
Q 1166 2931 1000 2803 
Q 834 2675 834 2503 
Q 834 2394 903 2306 
Q 972 2216 1119 2156 
Q 1203 2125 1616 2013 
Q 2213 1853 2448 1751 
Q 2684 1650 2818 1456 
Q 2953 1263 2953 975 
Q 2953 694 2789 445 
Q 2625 197 2315 61 
Q 2006 -75 1616 -75 
Q 969 -75 630 194 
Q 291 463 197 991 
z
" transform="scale(0.015625)"/>
     <path id="ArialMT-72" d="M 416 0 
L 416 3319 
L 922 3319 
L 922 2816 
Q 1116 3169 1280 3281 
Q 1444 3394 1641 3394 
Q 1925 3394 2219 3213 
L 2025 2691 
Q 1819 2813 1613 2813 
Q 1428 2813 1281 2702 
Q 1134 2591 1072 2394 
Q 978 2094 978 1738 
L 978 0 
L 416 0 
z
" transform="scale(0.015625)"/>
     <path id="ArialMT-62" d="M 941 0 
L 419 0 
L 419 4581 
L 981 4581 
L 981 2947 
Q 1338 3394 1891 3394 
Q 2197 3394 2470 3270 
Q 2744 3147 2920 2923 
Q 3097 2700 3197 2384 
Q 3297 2069 3297 1709 
Q 3297 856 2875 390 
Q 2453 -75 1863 -75 
Q 1275 -75 941 416 
L 941 0 
z
M 934 1684 
Q 934 1088 1097 822 
Q 1363 388 1816 388 
Q 2184 388 2453 708 
Q 2722 1028 2722 1663 
Q 2722 2313 2464 2622 
Q 2206 2931 1841 2931 
Q 1472 2931 1203 2611 
Q 934 2291 934 1684 
z
" transform="scale(0.015625)"/>
    </defs>
    <use xlink:href="#ArialMT-56"/>
    <use xlink:href="#ArialMT-69" x="64.949219"/>
    <use xlink:href="#ArialMT-6f" x="87.166016"/>
    <use xlink:href="#ArialMT-6c" x="142.78125"/>
    <use xlink:href="#ArialMT-69" x="164.998047"/>
    <use xlink:href="#ArialMT-6e" x="187.214844"/>
    <use xlink:href="#ArialMT-20" x="242.830078"/>
    <use xlink:href="#ArialMT-50" x="270.613281"/>
    <use xlink:href="#ArialMT-6c" x="337.3125"/>
    <use xlink:href="#ArialMT-6f" x="359.529297"/>
    <use xlink:href="#ArialMT-74" x="415.144531"/>
    <use xlink:href="#ArialMT-20" x="442.927734"/>
    <use xlink:href="#ArialMT-6f" x="470.710938"/>
    <use xlink:href="#ArialMT-66" x="526.326172"/>
    <use xlink:href="#ArialMT-20" x="554.109375"/>
    <use xlink:href="#ArialMT-61" x="581.892578"/>
    <use xlink:href="#ArialMT-6c" x="637.507812"/>
    <use xlink:href="#ArialMT-6c" x="659.724609"/>
    <use xlink:href="#ArialMT-20" x="681.941406"/>
    <use xlink:href="#ArialMT-43" x="709.724609"/>
    <use xlink:href="#ArialMT-6f" x="781.941406"/>
    <use xlink:href="#ArialMT-6e" x="837.556641"/>
    <use xlink:href="#ArialMT-74" x="893.171875"/>
    <use xlink:href="#ArialMT-69" x="920.955078"/>
    <use xlink:href="#ArialMT-6e" x="943.171875"/>
    <use xlink:href="#ArialMT-75" x="998.787109"/>
    <use xlink:href="#ArialMT-6f" x="1054.402344"/>
    <use xlink:href="#ArialMT-75" x="1110.017578"/>
    <use xlink:href="#ArialMT-73" x="1165.632812"/>
    <use xlink:href="#ArialMT-20" x="1215.632812"/>
    <use xlink:href="#ArialMT-56" x="1243.416016"/>
    <use xlink:href="#ArialMT-61" x="1302.740234"/>
    <use xlink:href="#ArialMT-72" x="1358.355469"/>
    <use xlink:href="#ArialMT-69" x="1391.65625"/>
    <use xlink:href="#ArialMT-61" x="1413.873047"/>
    <use xlink:href="#ArialMT-62" x="1469.488281"/>
    <use xlink:href="#ArialMT-6c" x="1525.103516"/>
    <use xlink:href="#ArialMT-65" x="1547.320312"/>
    <use xlink:href="#ArialMT-73" x="1602.935547"/>
   </g>
  </g>
 </g>
 <defs>
  <clipPath id="pf11b1bc9ad">
   <rect x="34.97" y="41.381126" width="1032.07" height="214.078874"/>
  </clipPath>
 </defs>
</svg>
